<svg preserveAspectRatio="none" overflow="visible" style="display: block;" width="41" height="20" viewBox="0 0 41 20" fill="none" xmlns="http://www.w3.org/2000/svg">
<path id="Union" fill-rule="evenodd" clip-rule="evenodd" d="M3.82203 0C1.71118 0 0 1.69823 0 3.7931V17.5862C0 18.1575 0.466686 18.6207 1.04237 18.6207H6.43294C7.13397 19.4631 8.19448 20 9.38136 20C10.5682 20 11.6287 19.4631 12.3298 18.6207H30.0601C30.7611 19.4631 31.8216 20 33.0085 20C34.1953 20 35.2559 19.4631 35.9569 18.6207H39.9576C40.5333 18.6207 41 18.1575 41 17.5862V9.31034C41 4.16838 36.7998 0 31.6186 0H3.82203ZM36.8149 16.5517H38.9153V10.3448L29.8814 10.3448V14.0255C30.5731 13.0507 31.7158 12.4138 33.0085 12.4138C35.1193 12.4138 36.8305 14.112 36.8305 16.2069C36.8305 16.3231 36.8252 16.4382 36.8149 16.5517ZM5.55932 16.2069C5.55932 16.3231 5.56459 16.4382 5.5749 16.5517H2.08475V10.3448L20.8475 10.3448V16.5517H13.1878C13.1981 16.4382 13.2034 16.3231 13.2034 16.2069C13.2034 14.112 11.4922 12.4138 9.38136 12.4138C7.2705 12.4138 5.55932 14.112 5.55932 16.2069ZM6.94915 2.06897H3.82203C2.86256 2.06897 2.08475 2.84089 2.08475 3.7931V8.27586L6.94915 8.27586L6.94915 2.06897ZM9.0339 8.27586L9.0339 2.06897H13.8983V8.27586L9.0339 8.27586ZM20.8475 8.27586L15.9831 8.27586V2.06897H20.8475V8.27586ZM22.9322 2.06897H27.7966V16.5517H22.9322V2.06897ZM29.8814 8.27586V2.06897H31.6186C35.2945 2.06897 38.3356 4.76659 38.8414 8.27586L29.8814 8.27586ZM9.38136 14.4828C8.42188 14.4828 7.64407 15.2547 7.64407 16.2069C7.64407 17.1591 8.42188 17.931 9.38136 17.931C10.3408 17.931 11.1186 17.1591 11.1186 16.2069C11.1186 15.2547 10.3408 14.4828 9.38136 14.4828ZM31.2712 16.2069C31.2712 15.2547 32.049 14.4828 33.0085 14.4828C33.968 14.4828 34.7458 15.2547 34.7458 16.2069C34.7458 17.1591 33.968 17.931 33.0085 17.931C32.049 17.931 31.2712 17.1591 31.2712 16.2069Z" fill="#1E2431"/>
</svg>
