<svg width="32" height="32" viewBox="0 0 32 32" fill="none" xmlns="http://www.w3.org/2000/svg">
  <path d="M16 4.5c6.35 0 11.5 5.15 11.5 11.5S22.35 27.5 16 27.5 4.5 22.35 4.5 16 9.65 4.5 16 4.5Z" stroke="#1E2431" stroke-width="2.3"/>
  <path d="M7.5 8.4c2.9 2.05 5 5.22 5.72 8.88.5 2.52.2 4.96-.68 7.08" stroke="#1E2431" stroke-width="2.1" stroke-linecap="round"/>
  <path d="M24.5 8.4c-2.9 2.05-5 5.22-5.72 8.88-.5 2.52-.2 4.96.68 7.08" stroke="#1E2431" stroke-width="2.1" stroke-linecap="round"/>
  <path d="M5.15 17.85c2.74-1.18 6.55-1.85 10.85-1.85s8.11.67 10.85 1.85" stroke="#1E2431" stroke-width="2.1" stroke-linecap="round"/>
</svg>
